<svg t="1627635459435" class="icon" viewBox="0 0 1024 1024" version="1.1" xmlns="http://www.w3.org/2000/svg" p-id="2245" width="12" height="12"><path d="M742.013651 742.471069c-42.266639 0-76.848249 34.58161-76.848249 76.848249 0 42.266639 34.58161 76.848249 76.848249 76.848249s76.848249-34.58161 76.848249-76.848249C818.860876 777.052678 784.279267 742.471069 742.013651 742.471069zM127.228683 127.686101l0 76.848249 76.848249 0 138.326439 292.022936-53.79316 92.218308c-3.842515 11.527544-7.68503 26.89658-7.68503 38.424124 0 42.266639 34.58161 76.848249 76.848249 76.848249l461.08847 0 0-76.848249-445.719434 0c-3.842515 0-7.68503-3.842515-7.68503-7.68503l0-3.842515 34.58161-65.320705 284.337907 0c30.739095 0 53.79316-15.370059 65.320705-38.424124l138.326439-249.756297c7.68503-7.68503 7.68503-11.527544 7.68503-19.211551 0-23.054065-15.370059-38.424124-38.424124-38.424124l-568.676837 0-34.58161-76.848249L127.228683 127.687124zM357.772406 742.471069c-42.266639 0-76.848249 34.58161-76.848249 76.848249 0 42.266639 34.58161 76.848249 76.848249 76.848249 42.266639 0 76.848249-34.58161 76.848249-76.848249C434.620655 777.052678 400.039046 742.471069 357.772406 742.471069z" p-id="2246" fill="#ff0036"></path></svg>